<svg width="20" height="21" viewBox="0 0 20 21" fill="none" xmlns="http://www.w3.org/2000/svg">
<g clip-path="url(#clip0_209_21771)">
<path fill-rule="evenodd" clip-rule="evenodd" d="M14.504 20.5C15.9615 20.5 17.3592 19.9211 18.3899 18.8906C19.4206 17.8601 19.9997 16.4625 20 15.005V5.996C20 4.53837 19.421 3.14044 18.3903 2.10974C17.3596 1.07904 15.9616 0.5 14.504 0.5H5.5C4.04131 0.5 2.64236 1.07946 1.61091 2.11091C0.579463 3.14236 0 4.54131 0 6L0 15.004C0 16.4616 0.579041 17.8596 1.60974 18.8903C2.64044 19.921 4.03837 20.5 5.496 20.5H14.504ZM5.5 2.5C4.57174 2.5 3.6815 2.86875 3.02513 3.52513C2.36875 4.1815 2 5.07174 2 6V15.004C2 15.9312 2.36833 16.8204 3.02395 17.476C3.67958 18.1317 4.5688 18.5 5.496 18.5H9.9V12.4H9.1C8.83478 12.4 8.58043 12.2946 8.39289 12.1071C8.20536 11.9196 8.1 11.6652 8.1 11.4C8.1 11.1348 8.20536 10.8804 8.39289 10.6929C8.58043 10.5054 8.83478 10.4 9.1 10.4H9.9V9.555C9.9 8.58563 10.2851 7.65597 10.9705 6.97052C11.656 6.28508 12.5856 5.9 13.555 5.9H14.5C14.7652 5.9 15.0196 6.00536 15.2071 6.19289C15.3946 6.38043 15.5 6.63478 15.5 6.9C15.5 7.16522 15.3946 7.41957 15.2071 7.60711C15.0196 7.79464 14.7652 7.9 14.5 7.9H13.555C12.642 7.9 11.9 8.641 11.9 9.555V10.4H14.5C14.7652 10.4 15.0196 10.5054 15.2071 10.6929C15.3946 10.8804 15.5 11.1348 15.5 11.4C15.5 11.6652 15.3946 11.9196 15.2071 12.1071C15.0196 12.2946 14.7652 12.4 14.5 12.4H11.9V18.5H14.504C15.431 18.5 16.3201 18.1318 16.9757 17.4764C17.6313 16.821 17.9997 15.932 18 15.005V5.996C18 5.0688 17.6317 4.17958 16.976 3.52395C16.3204 2.86833 15.4312 2.5 14.504 2.5H5.5Z" fill="#FAFAFA"/>
</g>
<defs>
<clipPath id="clip0_209_21771">
<rect width="20" height="20" fill="white" transform="translate(0 0.5)"/>
</clipPath>
</defs>
</svg>
