<svg width="20" height="21" viewBox="0 0 20 21" fill="none" xmlns="http://www.w3.org/2000/svg">
<g clip-path="url(#clip0_209_21774)">
<path d="M15.497 4.5C14.945 4.503 14.498 4.95 14.498 5.501C14.498 6.053 14.948 6.5 15.5 6.5C15.7652 6.4996 16.0194 6.39386 16.2067 6.20605C16.3939 6.01823 16.4989 5.76372 16.4985 5.4985C16.4981 5.23328 16.3923 4.97909 16.2045 4.79183C16.0167 4.60458 15.7622 4.4996 15.497 4.5Z" fill="#FAFAFA"/>
<path fill-rule="evenodd" clip-rule="evenodd" d="M6.74797 7.24699C7.61072 6.38437 8.78081 5.89981 10.0008 5.8999C11.2208 5.9 12.3909 6.38474 13.2535 7.24749C14.1161 8.11023 14.6007 9.28032 14.6006 10.5003C14.6005 11.7204 14.1157 12.8904 13.253 13.753C12.8258 14.1801 12.3186 14.5189 11.7605 14.75C11.2024 14.9812 10.6042 15.1001 10.0001 15.1001C8.7801 15.1 7.61009 14.6152 6.74747 13.7525C5.88486 12.8897 5.4003 11.7196 5.40039 10.4996C5.40048 9.27961 5.88522 8.1096 6.74797 7.24699ZM8.16197 8.66199C8.40341 8.42055 8.69003 8.22903 9.00549 8.09837C9.32094 7.96771 9.65903 7.90045 10.0005 7.90045C10.3419 7.90045 10.68 7.96771 10.9955 8.09837C11.3109 8.22903 11.5975 8.42055 11.839 8.66199C12.0804 8.90342 12.2719 9.19005 12.4026 9.5055C12.5333 9.82095 12.6005 10.159 12.6005 10.5005C12.6005 10.8419 12.5333 11.18 12.4026 11.4955C12.2719 11.8109 12.0804 12.0976 11.839 12.339C11.3514 12.8266 10.69 13.1005 10.0005 13.1005C9.3109 13.1005 8.64957 12.8266 8.16197 12.339C7.67437 11.8514 7.40044 11.1901 7.40044 10.5005C7.40044 9.81091 7.67437 9.14959 8.16197 8.66199Z" fill="#FAFAFA"/>
<path fill-rule="evenodd" clip-rule="evenodd" d="M5.496 0.5H14.505C15.2267 0.5 15.9413 0.642166 16.6081 0.918378C17.2748 1.19459 17.8806 1.59944 18.3909 2.1098C18.9012 2.62017 19.3059 3.22605 19.582 3.89285C19.8581 4.55965 20.0001 5.2743 20 5.996V15.005C20 15.7267 19.8578 16.4413 19.5816 17.1081C19.3054 17.7748 18.9006 18.3806 18.3902 18.8909C17.8798 19.4012 17.274 19.8059 16.6072 20.082C15.9404 20.3581 15.2257 20.5001 14.504 20.5H5.496C4.77422 20.5001 4.05948 20.3581 3.39262 20.0819C2.72575 19.8058 2.11983 19.4009 1.60945 18.8906C1.09907 18.3802 0.694244 17.7742 0.418091 17.1074C0.141937 16.4405 -0.000131273 15.7258 9.10167e-08 15.004V5.996C-0.000131273 5.27422 0.141937 4.55948 0.418091 3.89262C0.694244 3.22575 1.09907 2.61983 1.60945 2.10945C2.11983 1.59907 2.72575 1.19424 3.39262 0.918091C4.05948 0.641937 4.77422 0.499869 5.496 0.5ZM5.496 2.5C5.03686 2.49987 4.5822 2.59021 4.15798 2.76585C3.73377 2.94149 3.34832 3.199 3.02366 3.52366C2.699 3.84832 2.44149 4.23377 2.26585 4.65798C2.09021 5.0822 1.99987 5.53686 2 5.996V15.004C1.99987 15.4631 2.09021 15.9178 2.26585 16.342C2.44149 16.7662 2.699 17.1517 3.02366 17.4763C3.34832 17.801 3.73377 18.0585 4.15798 18.2341C4.5822 18.4098 5.03686 18.5001 5.496 18.5H14.504C14.9631 18.5001 15.4176 18.4098 15.8418 18.2342C16.2659 18.0587 16.6513 17.8012 16.976 17.4767C17.3006 17.1521 17.5582 16.7668 17.7339 16.3427C17.9096 15.9186 18 15.4641 18 15.005V5.996C18.0001 5.53695 17.9098 5.08236 17.7342 4.65821C17.5587 4.23407 17.3012 3.84866 16.9767 3.52402C16.6521 3.19937 16.2668 2.94184 15.8427 2.76614C15.4186 2.59043 14.9641 2.5 14.505 2.5H5.496Z" fill="#FAFAFA"/>
</g>
<defs>
<clipPath id="clip0_209_21774">
<rect width="20" height="20" fill="white" transform="translate(0 0.5)"/>
</clipPath>
</defs>
</svg>
