<svg width="171" height="11" viewBox="0 0 171 11" fill="none" xmlns="http://www.w3.org/2000/svg">
<path fill-rule="evenodd" clip-rule="evenodd" d="M68.5984 1.04821C60.2927 1.38458 52.0845 1.79818 44.0802 2.25035C32.7491 2.89001 21.4224 3.55173 10.164 4.59945C6.62013 4.9303 3.02127 5.13984 -0.500467 5.55341C-2.71119 5.81258 -5.64256 6.18199 -6.02727 6.25919C-6.22848 6.3033 -6.31627 6.36953 -6.34463 6.39159C-6.54408 6.54599 -6.50769 6.69481 -6.39511 6.81061C-6.3499 6.86024 -6.23559 6.98161 -5.91825 6.99815C15.3044 8.12858 37.0056 5.92287 58.254 5.69127C95.1023 5.29424 133.068 6.87133 169.623 10.3122C169.943 10.3398 170.253 10.2019 170.297 9.99789C170.35 9.79937 170.12 9.60637 169.801 9.5788C133.183 6.13237 95.1555 4.54976 58.2362 4.9523C38.4336 5.16736 18.2402 7.10291 -1.58988 6.4412C-1.13426 6.38606 -0.68748 6.33089 -0.279728 6.28126C3.22783 5.86769 6.81161 5.66368 10.3413 5.33282C21.5758 4.28511 32.8794 3.62339 44.1954 2.98925C58.2362 2.19519 72.8887 1.51142 87.6564 1.19159C92.9395 1.24122 98.2047 1.29087 103.47 1.35152C114.861 1.48387 126.304 1.86987 137.668 2.38821C141.09 2.54813 144.511 2.71354 147.933 2.85691C149.067 2.90654 151.993 3.04989 152.4 3.03886C152.906 3.02783 153.003 2.76317 153.012 2.71906C153.039 2.6198 153.021 2.48193 152.773 2.36613C152.746 2.34959 152.586 2.29441 152.232 2.26133C131.57 0.309268 109.507 -0.0160236 87.6742 0.452691C64.645 0.248662 41.5273 0.160393 18.5566 0.0666504C18.2278 0.0666504 17.9592 0.232103 17.9565 0.436132C17.9548 0.640161 18.2198 0.805619 18.5486 0.811133C35.1814 0.877305 51.8983 0.943438 68.5984 1.04821Z" fill="#444D61"/>
</svg>
