<svg width="44" height="44" viewBox="0 0 44 44" fill="none" xmlns="http://www.w3.org/2000/svg">
<path fill-rule="evenodd" clip-rule="evenodd" d="M41.6586 13.8467C33.4003 29.2027 16.9037 35.4457 1.58192 26.8007C1.07185 26.5128 0.425035 26.6928 0.137167 27.1966C-0.150701 27.7093 0.0292356 28.357 0.539302 28.6449C16.9622 37.9197 34.6741 31.3077 43.5261 14.8543C43.8032 14.3415 43.6098 13.6937 43.0943 13.4148C42.5788 13.145 41.9356 13.334 41.6586 13.8467Z" fill="white"/>
<path d="M14.4756 20.2148C16.1815 20.2148 17.5644 18.832 17.5644 17.1261C17.5644 15.4202 16.1815 14.0374 14.4756 14.0374C12.7697 14.0374 11.3868 15.4202 11.3868 17.1261C11.3868 18.832 12.7697 20.2148 14.4756 20.2148Z" fill="white"/>
<path d="M27.2626 16.9292C28.9352 16.9292 30.2911 15.5733 30.2911 13.9008C30.2911 12.2283 28.9352 10.8724 27.2626 10.8724C25.5901 10.8724 24.2343 12.2283 24.2343 13.9008C24.2343 15.5733 25.5901 16.9292 27.2626 16.9292Z" fill="white"/>
</svg>
