<svg width="362" height="113" viewBox="0 0 362 113" fill="none" xmlns="http://www.w3.org/2000/svg">
<path d="M23.1197 97.0104L23.1197 104.15L24.8417 104.15C27.5857 104.15 28.1737 102.582 28.1737 100.58C28.1737 98.5784 27.5857 97.0104 24.8417 97.0104L23.1197 97.0104ZM21.3697 105.578L21.3697 95.5824L25.5137 95.5824C28.5937 95.5824 29.9237 97.8224 29.9237 100.58C29.9237 103.338 28.5937 105.578 25.5137 105.578L21.3697 105.578ZM35.7152 103.142L35.7152 101.952C35.2252 102.274 34.4552 102.26 33.7552 102.386C33.0692 102.498 32.4532 102.75 32.4532 103.59C32.4532 104.304 33.3632 104.514 33.9232 104.514C34.6232 104.514 35.7152 104.15 35.7152 103.142ZM37.3112 100.244L37.3112 103.968C37.3112 104.36 37.3952 104.514 37.6892 104.514C37.7872 104.514 37.9132 104.514 38.0812 104.486L38.0812 105.592C37.8432 105.676 37.3392 105.774 37.0732 105.774C36.4292 105.774 35.9672 105.55 35.8412 104.892C35.2112 105.508 34.1892 105.774 33.3352 105.774C32.0332 105.774 30.8572 105.074 30.8572 103.66C30.8572 101.854 32.2992 101.56 33.6432 101.406C34.7912 101.196 35.8132 101.322 35.8132 100.384C35.8132 99.5584 34.9592 99.4044 34.3152 99.4044C33.4192 99.4044 32.7892 99.7684 32.7192 100.552L31.1232 100.552C31.2352 98.6904 32.8172 98.1444 34.4132 98.1444C35.8272 98.1444 37.3112 98.7184 37.3112 100.244ZM40.2745 102.036C40.2745 103.282 40.8905 104.514 42.2765 104.514C43.7045 104.514 44.3065 103.212 44.3065 101.952C44.3065 100.356 43.5365 99.4044 42.3045 99.4044C40.8065 99.4044 40.2745 100.734 40.2745 102.036ZM45.8465 95.5824L45.8465 105.578L44.3345 105.578L44.3345 104.598L44.3065 104.598C43.8865 105.424 42.9765 105.774 42.0665 105.774C39.7845 105.774 38.6785 104.08 38.6785 101.91C38.6785 99.2924 40.2325 98.1444 41.8145 98.1444C42.7245 98.1444 43.7325 98.4804 44.2225 99.2784L44.2505 99.2784L44.2505 95.5824L45.8465 95.5824ZM50.9051 104.514C52.3331 104.514 52.9631 103.212 52.9631 101.952C52.9631 100.706 52.3331 99.4044 50.9051 99.4044C49.4771 99.4044 48.8471 100.706 48.8471 101.952C48.8471 103.212 49.4771 104.514 50.9051 104.514ZM50.9051 105.774C48.5811 105.774 47.2511 104.178 47.2511 101.952C47.2511 99.7404 48.5811 98.1444 50.9051 98.1444C53.2291 98.1444 54.5591 99.7404 54.5591 101.952C54.5591 104.178 53.2291 105.774 50.9051 105.774ZM55.4939 103.254L57.0899 103.254C57.1739 104.178 57.8739 104.514 58.7279 104.514C59.3299 104.514 60.3799 104.388 60.3379 103.562C60.2959 102.722 59.1339 102.624 57.9719 102.358C56.7959 102.106 55.6479 101.686 55.6479 100.216C55.6479 98.6344 57.3559 98.1444 58.6719 98.1444C60.1559 98.1444 61.4999 98.7604 61.6959 100.37L60.0299 100.37C59.8899 99.6144 59.2599 99.4044 58.5599 99.4044C58.0979 99.4044 57.2439 99.5164 57.2439 100.146C57.2439 100.93 58.4199 101.042 59.5959 101.308C60.7579 101.574 61.9339 101.994 61.9339 103.422C61.9339 105.144 60.1979 105.774 58.6999 105.774C56.8799 105.774 55.5219 104.962 55.4939 103.254ZM67.2662 105.578L67.2662 95.5824L69.0162 95.5824L69.0162 105.578L67.2662 105.578ZM70.9386 105.578L70.9386 98.3404L72.4506 98.3404L72.4506 99.4044L72.4786 99.4324C72.9546 98.6344 73.7806 98.1444 74.7326 98.1444C76.3006 98.1444 77.2946 98.9844 77.2946 100.608L77.2946 105.578L75.6986 105.578L75.6986 101.028C75.6706 99.8944 75.2226 99.4044 74.2846 99.4044C73.2206 99.4044 72.5346 100.244 72.5346 101.308L72.5346 105.578L70.9386 105.578ZM79.0197 105.578L79.0197 98.3404L80.6157 98.3404L80.6157 105.578L79.0197 105.578ZM79.0197 97.0944L79.0197 95.5824L80.6157 95.5824L80.6157 97.0944L79.0197 97.0944ZM88.8367 100.762L87.2407 100.762C87.1147 99.8804 86.4707 99.4044 85.5887 99.4044C84.7627 99.4044 83.6007 99.8384 83.6007 102.036C83.6007 103.24 84.1327 104.514 85.5187 104.514C86.4427 104.514 87.0867 103.898 87.2407 102.862L88.8367 102.862C88.5427 104.738 87.3807 105.774 85.5187 105.774C83.2507 105.774 82.0047 104.164 82.0047 102.036C82.0047 99.8524 83.1947 98.1444 85.5747 98.1444C87.2547 98.1444 88.6827 98.9844 88.8367 100.762ZM90.176 105.578L90.176 98.3404L91.772 98.3404L91.772 105.578L90.176 105.578ZM90.176 97.0944L90.176 95.5824L91.772 95.5824L91.772 97.0944L90.176 97.0944ZM97.9769 103.142L97.9769 101.952C97.4869 102.274 96.7169 102.26 96.0169 102.386C95.3309 102.498 94.7149 102.75 94.7149 103.59C94.7149 104.304 95.6249 104.514 96.1849 104.514C96.8849 104.514 97.9769 104.15 97.9769 103.142ZM99.5729 100.244L99.5729 103.968C99.5729 104.36 99.6569 104.514 99.9509 104.514C100.049 104.514 100.175 104.514 100.343 104.486L100.343 105.592C100.105 105.676 99.6009 105.774 99.3349 105.774C98.6909 105.774 98.2289 105.55 98.1029 104.892C97.4729 105.508 96.4509 105.774 95.5969 105.774C94.2949 105.774 93.1189 105.074 93.1189 103.66C93.1189 101.854 94.5609 101.56 95.9049 101.406C97.0529 101.196 98.0749 101.322 98.0749 100.384C98.0749 99.5584 97.2209 99.4044 96.5769 99.4044C95.6809 99.4044 95.0509 99.7684 94.9809 100.552L93.3849 100.552C93.4969 98.6904 95.0789 98.1444 96.6749 98.1444C98.0889 98.1444 99.5729 98.7184 99.5729 100.244ZM101.332 105.578L101.332 98.3404L102.928 98.3404L102.928 105.578L101.332 105.578ZM101.332 97.0944L101.332 95.5824L102.928 95.5824L102.928 97.0944L101.332 97.0944ZM104.275 103.254L105.871 103.254C105.955 104.178 106.655 104.514 107.509 104.514C108.111 104.514 109.161 104.388 109.119 103.562C109.077 102.722 107.915 102.624 106.753 102.358C105.577 102.106 104.429 101.686 104.429 100.216C104.429 98.6344 106.137 98.1444 107.453 98.1444C108.937 98.1444 110.281 98.7604 110.477 100.37L108.811 100.37C108.671 99.6144 108.041 99.4044 107.341 99.4044C106.879 99.4044 106.025 99.5164 106.025 100.146C106.025 100.93 107.201 101.042 108.377 101.308C109.539 101.574 110.715 101.994 110.715 103.422C110.715 105.144 108.979 105.774 107.481 105.774C105.661 105.774 104.303 104.962 104.275 103.254Z" fill="#5E718D"/>
<path d="M207.773 97.0104L207.773 104.15L209.495 104.15C212.239 104.15 212.827 102.582 212.827 100.58C212.827 98.5784 212.239 97.0104 209.495 97.0104L207.773 97.0104ZM206.023 105.578L206.023 95.5824L210.167 95.5824C213.247 95.5824 214.577 97.8224 214.577 100.58C214.577 103.338 213.247 105.578 210.167 105.578L206.023 105.578ZM220.368 103.142L220.368 101.952C219.878 102.274 219.108 102.26 218.408 102.386C217.722 102.498 217.106 102.75 217.106 103.59C217.106 104.304 218.016 104.514 218.576 104.514C219.276 104.514 220.368 104.15 220.368 103.142ZM221.964 100.244L221.964 103.968C221.964 104.36 222.048 104.514 222.342 104.514C222.44 104.514 222.566 104.514 222.734 104.486L222.734 105.592C222.496 105.676 221.992 105.774 221.726 105.774C221.082 105.774 220.62 105.55 220.494 104.892C219.864 105.508 218.842 105.774 217.988 105.774C216.686 105.774 215.51 105.074 215.51 103.66C215.51 101.854 216.952 101.56 218.296 101.406C219.444 101.196 220.466 101.322 220.466 100.384C220.466 99.5584 219.612 99.4044 218.968 99.4044C218.072 99.4044 217.442 99.7684 217.372 100.552L215.776 100.552C215.888 98.6904 217.47 98.1444 219.066 98.1444C220.48 98.1444 221.964 98.7184 221.964 100.244ZM224.927 102.036C224.927 103.282 225.543 104.514 226.929 104.514C228.357 104.514 228.959 103.212 228.959 101.952C228.959 100.356 228.189 99.4044 226.957 99.4044C225.459 99.4044 224.927 100.734 224.927 102.036ZM230.499 95.5824L230.499 105.578L228.987 105.578L228.987 104.598L228.959 104.598C228.539 105.424 227.629 105.774 226.719 105.774C224.437 105.774 223.331 104.08 223.331 101.91C223.331 99.2924 224.885 98.1444 226.467 98.1444C227.377 98.1444 228.385 98.4804 228.875 99.2784L228.903 99.2784L228.903 95.5824L230.499 95.5824ZM235.558 104.514C236.986 104.514 237.616 103.212 237.616 101.952C237.616 100.706 236.986 99.4044 235.558 99.4044C234.13 99.4044 233.5 100.706 233.5 101.952C233.5 103.212 234.13 104.514 235.558 104.514ZM235.558 105.774C233.234 105.774 231.904 104.178 231.904 101.952C231.904 99.7404 233.234 98.1444 235.558 98.1444C237.882 98.1444 239.212 99.7404 239.212 101.952C239.212 104.178 237.882 105.774 235.558 105.774ZM240.147 103.254L241.743 103.254C241.827 104.178 242.527 104.514 243.381 104.514C243.983 104.514 245.033 104.388 244.991 103.562C244.949 102.722 243.787 102.624 242.625 102.358C241.449 102.106 240.301 101.686 240.301 100.216C240.301 98.6344 242.009 98.1444 243.325 98.1444C244.809 98.1444 246.153 98.7604 246.349 100.37L244.683 100.37C244.543 99.6144 243.913 99.4044 243.213 99.4044C242.751 99.4044 241.897 99.5164 241.897 100.146C241.897 100.93 243.073 101.042 244.249 101.308C245.411 101.574 246.587 101.994 246.587 103.422C246.587 105.144 244.851 105.774 243.353 105.774C241.533 105.774 240.175 104.962 240.147 103.254ZM251.919 105.578L251.919 95.5824L253.669 95.5824L253.669 105.578L251.919 105.578ZM255.592 105.578L255.592 98.3404L257.104 98.3404L257.104 99.4044L257.132 99.4324C257.608 98.6344 258.434 98.1444 259.386 98.1444C260.954 98.1444 261.948 98.9844 261.948 100.608L261.948 105.578L260.352 105.578L260.352 101.028C260.324 99.8944 259.876 99.4044 258.938 99.4044C257.874 99.4044 257.188 100.244 257.188 101.308L257.188 105.578L255.592 105.578ZM263.239 103.254L264.835 103.254C264.919 104.178 265.619 104.514 266.473 104.514C267.075 104.514 268.125 104.388 268.083 103.562C268.041 102.722 266.879 102.624 265.717 102.358C264.541 102.106 263.393 101.686 263.393 100.216C263.393 98.6344 265.101 98.1444 266.417 98.1444C267.901 98.1444 269.245 98.7604 269.441 100.37L267.775 100.37C267.635 99.6144 267.005 99.4044 266.305 99.4044C265.843 99.4044 264.989 99.5164 264.989 100.146C264.989 100.93 266.165 101.042 267.341 101.308C268.503 101.574 269.679 101.994 269.679 103.422C269.679 105.144 267.943 105.774 266.445 105.774C264.625 105.774 263.267 104.962 263.239 103.254ZM270.162 99.5304L270.162 98.3404L271.366 98.3404L271.366 96.1704L272.962 96.1704L272.962 98.3404L274.404 98.3404L274.404 99.5304L272.962 99.5304L272.962 103.394C272.962 104.052 273.018 104.388 273.732 104.388C273.956 104.388 274.18 104.388 274.404 104.332L274.404 105.564C274.054 105.592 273.718 105.648 273.368 105.648C271.702 105.648 271.394 105.004 271.366 103.8L271.366 99.5304L270.162 99.5304ZM275.594 105.578L275.594 98.3404L277.19 98.3404L277.19 105.578L275.594 105.578ZM275.594 97.0944L275.594 95.5824L277.19 95.5824L277.19 97.0944L275.594 97.0944ZM278.201 99.5304L278.201 98.3404L279.405 98.3404L279.405 96.1704L281.001 96.1704L281.001 98.3404L282.443 98.3404L282.443 99.5304L281.001 99.5304L281.001 103.394C281.001 104.052 281.057 104.388 281.771 104.388C281.995 104.388 282.219 104.388 282.443 104.332L282.443 105.564C282.093 105.592 281.757 105.648 281.407 105.648C279.741 105.648 279.433 105.004 279.405 103.8L279.405 99.5304L278.201 99.5304ZM289.948 98.3404L289.948 105.578L288.38 105.578L288.38 104.57L288.352 104.57C287.96 105.298 287.092 105.774 286.294 105.774C284.404 105.774 283.592 104.822 283.592 102.932L283.592 98.3404L285.188 98.3404L285.188 102.778C285.188 104.052 285.706 104.514 286.574 104.514C287.904 104.514 288.352 103.66 288.352 102.54L288.352 98.3404L289.948 98.3404ZM298.113 100.762L296.517 100.762C296.391 99.8804 295.747 99.4044 294.865 99.4044C294.039 99.4044 292.877 99.8384 292.877 102.036C292.877 103.24 293.409 104.514 294.795 104.514C295.719 104.514 296.363 103.898 296.517 102.862L298.113 102.862C297.819 104.738 296.657 105.774 294.795 105.774C292.527 105.774 291.281 104.164 291.281 102.036C291.281 99.8524 292.471 98.1444 294.851 98.1444C296.531 98.1444 297.959 98.9844 298.113 100.762ZM299.452 105.578L299.452 98.3404L301.048 98.3404L301.048 105.578L299.452 105.578ZM299.452 97.0944L299.452 95.5824L301.048 95.5824L301.048 97.0944L299.452 97.0944ZM306.105 104.514C307.533 104.514 308.163 103.212 308.163 101.952C308.163 100.706 307.533 99.4044 306.105 99.4044C304.677 99.4044 304.047 100.706 304.047 101.952C304.047 103.212 304.677 104.514 306.105 104.514ZM306.105 105.774C303.781 105.774 302.451 104.178 302.451 101.952C302.451 99.7404 303.781 98.1444 306.105 98.1444C308.429 98.1444 309.759 99.7404 309.759 101.952C309.759 104.178 308.429 105.774 306.105 105.774ZM311.086 105.578L311.086 98.3404L312.598 98.3404L312.598 99.4044L312.626 99.4324C313.102 98.6344 313.928 98.1444 314.88 98.1444C316.448 98.1444 317.442 98.9844 317.442 100.608L317.442 105.578L315.846 105.578L315.846 101.028C315.818 99.8944 315.37 99.4044 314.432 99.4044C313.368 99.4044 312.682 100.244 312.682 101.308L312.682 105.578L311.086 105.578ZM323.591 103.142L323.591 101.952C323.101 102.274 322.331 102.26 321.631 102.386C320.945 102.498 320.329 102.75 320.329 103.59C320.329 104.304 321.239 104.514 321.799 104.514C322.499 104.514 323.591 104.15 323.591 103.142ZM325.187 100.244L325.187 103.968C325.187 104.36 325.271 104.514 325.565 104.514C325.663 104.514 325.789 104.514 325.957 104.486L325.957 105.592C325.719 105.676 325.215 105.774 324.949 105.774C324.305 105.774 323.843 105.55 323.717 104.892C323.087 105.508 322.065 105.774 321.211 105.774C319.909 105.774 318.733 105.074 318.733 103.66C318.733 101.854 320.175 101.56 321.519 101.406C322.667 101.196 323.689 101.322 323.689 100.384C323.689 99.5584 322.835 99.4044 322.191 99.4044C321.295 99.4044 320.665 99.7684 320.595 100.552L318.999 100.552C319.111 98.6904 320.693 98.1444 322.289 98.1444C323.703 98.1444 325.187 98.7184 325.187 100.244ZM326.946 105.578L326.946 98.3404L328.542 98.3404L328.542 105.578L326.946 105.578ZM326.946 97.0944L326.946 95.5824L328.542 95.5824L328.542 97.0944L326.946 97.0944ZM329.889 103.254L331.485 103.254C331.569 104.178 332.269 104.514 333.123 104.514C333.725 104.514 334.775 104.388 334.733 103.562C334.691 102.722 333.529 102.624 332.367 102.358C331.191 102.106 330.043 101.686 330.043 100.216C330.043 98.6344 331.751 98.1444 333.067 98.1444C334.551 98.1444 335.895 98.7604 336.091 100.37L334.425 100.37C334.285 99.6144 333.655 99.4044 332.955 99.4044C332.493 99.4044 331.639 99.5164 331.639 100.146C331.639 100.93 332.815 101.042 333.991 101.308C335.153 101.574 336.329 101.994 336.329 103.422C336.329 105.144 334.593 105.774 333.095 105.774C331.275 105.774 329.917 104.962 329.889 103.254Z" fill="#5E718D"/>
<line x1="92.5111" y1="41.5662" x2="241.333" y2="41.5662" stroke="#455468" stroke-width="4"/>
<ellipse cx="276.193" cy="35.3976" rx="34.8593" ry="35.3976" fill="#455468"/>
<path d="M272.313 42.7445L284.888 42.7445L284.888 46.1445L267.038 46.1445C267.488 35.7445 279.988 38.3195 279.988 34.0445C279.988 32.5945 278.763 31.5945 276.663 31.5945C274.713 31.5945 272.763 32.3945 272.488 34.8695L267.488 34.8695C267.713 29.8945 271.738 28.3445 276.488 28.3445C282.788 28.3445 284.988 31.3195 284.988 34.1195C284.988 37.5695 282.288 38.6695 277.513 40.1445L275.488 40.7695C274.413 41.1445 273.088 41.7195 272.313 42.7445Z" fill="#CCD9EB"/>
<ellipse cx="57.6519" cy="38.1205" rx="34.8593" ry="35.3976" fill="#455468"/>
<path d="M56.8811 48.8674L56.8811 37.7924L51.6311 37.7924L51.6311 34.6924C55.4811 34.6174 56.9061 34.3174 57.9061 31.5174L61.4311 31.5174L61.4311 48.8674L56.8811 48.8674Z" fill="white"/>
</svg>
