<svg width="368" height="113" viewBox="0 0 368 113" fill="none" xmlns="http://www.w3.org/2000/svg">
<path d="M24.2086 97.0104L24.2086 104.15L25.9306 104.15C28.6746 104.15 29.2626 102.582 29.2626 100.58C29.2626 98.5784 28.6746 97.0104 25.9306 97.0104L24.2086 97.0104ZM22.4586 105.578L22.4586 95.5824L26.6026 95.5824C29.6826 95.5824 31.0126 97.8224 31.0126 100.58C31.0126 103.338 29.6826 105.578 26.6026 105.578L22.4586 105.578ZM36.8041 103.142L36.8041 101.952C36.3141 102.274 35.5441 102.26 34.8441 102.386C34.1581 102.498 33.5421 102.75 33.5421 103.59C33.5421 104.304 34.4521 104.514 35.0121 104.514C35.7121 104.514 36.8041 104.15 36.8041 103.142ZM38.4001 100.244L38.4001 103.968C38.4001 104.36 38.4841 104.514 38.7781 104.514C38.8761 104.514 39.0021 104.514 39.1701 104.486L39.1701 105.592C38.9321 105.676 38.4281 105.774 38.1621 105.774C37.5181 105.774 37.0561 105.55 36.9301 104.892C36.3001 105.508 35.2781 105.774 34.4241 105.774C33.1221 105.774 31.9461 105.074 31.9461 103.66C31.9461 101.854 33.3881 101.56 34.7321 101.406C35.8801 101.196 36.9021 101.322 36.9021 100.384C36.9021 99.5584 36.0481 99.4044 35.4041 99.4044C34.5081 99.4044 33.8781 99.7684 33.8081 100.552L32.2121 100.552C32.3241 98.6904 33.9061 98.1444 35.5021 98.1444C36.9161 98.1444 38.4001 98.7184 38.4001 100.244ZM41.3634 102.036C41.3634 103.282 41.9794 104.514 43.3654 104.514C44.7934 104.514 45.3954 103.212 45.3954 101.952C45.3954 100.356 44.6254 99.4044 43.3934 99.4044C41.8954 99.4044 41.3634 100.734 41.3634 102.036ZM46.9354 95.5824L46.9354 105.578L45.4234 105.578L45.4234 104.598L45.3954 104.598C44.9754 105.424 44.0654 105.774 43.1554 105.774C40.8734 105.774 39.7674 104.08 39.7674 101.91C39.7674 99.2924 41.3214 98.1444 42.9034 98.1444C43.8134 98.1444 44.8214 98.4804 45.3114 99.2784L45.3394 99.2784L45.3394 95.5824L46.9354 95.5824ZM51.994 104.514C53.422 104.514 54.052 103.212 54.052 101.952C54.052 100.706 53.422 99.4044 51.994 99.4044C50.566 99.4044 49.936 100.706 49.936 101.952C49.936 103.212 50.566 104.514 51.994 104.514ZM51.994 105.774C49.67 105.774 48.34 104.178 48.34 101.952C48.34 99.7404 49.67 98.1444 51.994 98.1444C54.318 98.1444 55.648 99.7404 55.648 101.952C55.648 104.178 54.318 105.774 51.994 105.774ZM56.5828 103.254L58.1788 103.254C58.2628 104.178 58.9628 104.514 59.8168 104.514C60.4188 104.514 61.4688 104.388 61.4268 103.562C61.3848 102.722 60.2228 102.624 59.0608 102.358C57.8848 102.106 56.7368 101.686 56.7368 100.216C56.7368 98.6344 58.4448 98.1444 59.7608 98.1444C61.2448 98.1444 62.5888 98.7604 62.7848 100.37L61.1188 100.37C60.9788 99.6144 60.3488 99.4044 59.6488 99.4044C59.1868 99.4044 58.3328 99.5164 58.3328 100.146C58.3328 100.93 59.5088 101.042 60.6848 101.308C61.8468 101.574 63.0228 101.994 63.0228 103.422C63.0228 105.144 61.2868 105.774 59.7888 105.774C57.9688 105.774 56.6108 104.962 56.5828 103.254ZM68.355 105.578L68.355 95.5824L70.105 95.5824L70.105 105.578L68.355 105.578ZM72.0275 105.578L72.0275 98.3404L73.5395 98.3404L73.5395 99.4044L73.5675 99.4324C74.0435 98.6344 74.8695 98.1444 75.8215 98.1444C77.3895 98.1444 78.3835 98.9844 78.3835 100.608L78.3835 105.578L76.7875 105.578L76.7875 101.028C76.7595 99.8944 76.3115 99.4044 75.3735 99.4044C74.3095 99.4044 73.6235 100.244 73.6235 101.308L73.6235 105.578L72.0275 105.578ZM80.1086 105.578L80.1086 98.3404L81.7046 98.3404L81.7046 105.578L80.1086 105.578ZM80.1086 97.0944L80.1086 95.5824L81.7046 95.5824L81.7046 97.0944L80.1086 97.0944ZM89.9255 100.762L88.3295 100.762C88.2035 99.8804 87.5595 99.4044 86.6775 99.4044C85.8515 99.4044 84.6895 99.8384 84.6895 102.036C84.6895 103.24 85.2215 104.514 86.6075 104.514C87.5315 104.514 88.1755 103.898 88.3295 102.862L89.9255 102.862C89.6315 104.738 88.4695 105.774 86.6075 105.774C84.3395 105.774 83.0935 104.164 83.0935 102.036C83.0935 99.8524 84.2835 98.1444 86.6635 98.1444C88.3435 98.1444 89.7715 98.9844 89.9255 100.762ZM91.2648 105.578L91.2648 98.3404L92.8608 98.3404L92.8608 105.578L91.2648 105.578ZM91.2648 97.0944L91.2648 95.5824L92.8608 95.5824L92.8608 97.0944L91.2648 97.0944ZM99.0658 103.142L99.0658 101.952C98.5758 102.274 97.8058 102.26 97.1058 102.386C96.4198 102.498 95.8038 102.75 95.8038 103.59C95.8038 104.304 96.7138 104.514 97.2738 104.514C97.9738 104.514 99.0658 104.15 99.0658 103.142ZM100.662 100.244L100.662 103.968C100.662 104.36 100.746 104.514 101.04 104.514C101.138 104.514 101.264 104.514 101.432 104.486L101.432 105.592C101.194 105.676 100.69 105.774 100.424 105.774C99.7798 105.774 99.3178 105.55 99.1918 104.892C98.5618 105.508 97.5398 105.774 96.6858 105.774C95.3838 105.774 94.2078 105.074 94.2078 103.66C94.2078 101.854 95.6498 101.56 96.9938 101.406C98.1418 101.196 99.1638 101.322 99.1638 100.384C99.1638 99.5584 98.3098 99.4044 97.6658 99.4044C96.7698 99.4044 96.1398 99.7684 96.0698 100.552L94.4738 100.552C94.5858 98.6904 96.1678 98.1444 97.7638 98.1444C99.1778 98.1444 100.662 98.7184 100.662 100.244ZM102.421 105.578L102.421 98.3404L104.017 98.3404L104.017 105.578L102.421 105.578ZM102.421 97.0944L102.421 95.5824L104.017 95.5824L104.017 97.0944L102.421 97.0944ZM105.364 103.254L106.96 103.254C107.044 104.178 107.744 104.514 108.598 104.514C109.2 104.514 110.25 104.388 110.208 103.562C110.166 102.722 109.004 102.624 107.842 102.358C106.666 102.106 105.518 101.686 105.518 100.216C105.518 98.6344 107.226 98.1444 108.542 98.1444C110.026 98.1444 111.37 98.7604 111.566 100.37L109.9 100.37C109.76 99.6144 109.13 99.4044 108.43 99.4044C107.968 99.4044 107.114 99.5164 107.114 100.146C107.114 100.93 108.29 101.042 109.466 101.308C110.628 101.574 111.804 101.994 111.804 103.422C111.804 105.144 110.068 105.774 108.57 105.774C106.75 105.774 105.392 104.962 105.364 103.254Z" fill="#5E718D"/>
<path d="M213.014 105.578L213.014 95.5824L216.444 95.5824C219.524 95.5824 221.246 97.1224 221.246 100.342C221.246 103.688 219.776 105.578 216.444 105.578L213.014 105.578ZM214.344 96.7024L214.344 104.458L216.556 104.458C217.466 104.458 219.916 104.206 219.916 100.524C219.916 98.1444 219.034 96.7024 216.584 96.7024L214.344 96.7024ZM227.155 103.058L227.155 101.84C226.693 102.176 225.797 102.19 224.999 102.33C224.215 102.47 223.543 102.75 223.543 103.632C223.543 104.416 224.215 104.696 224.943 104.696C226.511 104.696 227.155 103.716 227.155 103.058ZM229.087 104.626L229.087 105.55C228.877 105.676 228.611 105.746 228.233 105.746C227.617 105.746 227.225 105.41 227.225 104.626C226.567 105.396 225.685 105.746 224.677 105.746C223.361 105.746 222.283 105.158 222.283 103.716C222.283 102.078 223.501 101.728 224.733 101.49C226.049 101.238 227.169 101.322 227.169 100.426C227.169 99.3904 226.315 99.2224 225.559 99.2224C224.551 99.2224 223.809 99.5304 223.753 100.594L222.563 100.594C222.633 98.8024 224.019 98.1724 225.629 98.1724C226.931 98.1724 228.345 98.4664 228.345 100.16L228.345 103.884C228.345 104.444 228.345 104.696 228.723 104.696C228.821 104.696 228.933 104.682 229.087 104.626ZM236.663 95.5824L236.663 105.578L235.473 105.578L235.473 104.598L235.445 104.598C235.053 105.396 234.129 105.746 233.135 105.746C230.909 105.746 229.803 103.982 229.803 101.938C229.803 99.8944 230.895 98.1724 233.107 98.1724C233.849 98.1724 234.913 98.4524 235.445 99.3064L235.473 99.3064L235.473 95.5824L236.663 95.5824ZM231.063 102.022C231.063 103.38 231.763 104.696 233.303 104.696C234.899 104.696 235.515 103.324 235.515 101.966C235.515 100.538 234.871 99.2224 233.233 99.2224C231.609 99.2224 231.063 100.608 231.063 102.022ZM238.102 101.966C238.102 99.8384 239.32 98.1724 241.616 98.1724C243.912 98.1724 245.13 99.8384 245.13 101.966C245.13 104.08 243.912 105.746 241.616 105.746C239.32 105.746 238.102 104.08 238.102 101.966ZM239.362 101.966C239.362 103.716 240.37 104.696 241.616 104.696C242.862 104.696 243.87 103.716 243.87 101.966C243.87 100.202 242.862 99.2224 241.616 99.2224C240.37 99.2224 239.362 100.202 239.362 101.966ZM246.071 103.296L247.261 103.296C247.303 104.36 248.227 104.696 249.207 104.696C249.949 104.696 250.957 104.528 250.957 103.618C250.957 102.694 249.781 102.54 248.591 102.274C247.415 102.008 246.225 101.616 246.225 100.23C246.225 98.7744 247.667 98.1724 248.927 98.1724C250.523 98.1724 251.797 98.6764 251.895 100.44L250.705 100.44C250.621 99.5164 249.809 99.2224 249.025 99.2224C248.311 99.2224 247.485 99.4184 247.485 100.146C247.485 101 248.745 101.14 249.851 101.406C251.041 101.672 252.217 102.064 252.217 103.464C252.217 105.186 250.607 105.746 249.137 105.746C247.513 105.746 246.141 105.088 246.071 103.296ZM257.681 105.578L257.681 95.5824L259.011 95.5824L259.011 105.578L257.681 105.578ZM261.052 105.578L261.052 98.3404L262.172 98.3404L262.172 99.4884L262.2 99.4884C262.704 98.5924 263.516 98.1724 264.552 98.1724C266.456 98.1724 267.044 99.2644 267.044 100.818L267.044 105.578L265.854 105.578L265.854 100.678C265.854 99.7964 265.294 99.2224 264.384 99.2224C262.942 99.2224 262.242 100.188 262.242 101.49L262.242 105.578L261.052 105.578ZM268.37 103.296L269.56 103.296C269.602 104.36 270.526 104.696 271.506 104.696C272.248 104.696 273.256 104.528 273.256 103.618C273.256 102.694 272.08 102.54 270.89 102.274C269.714 102.008 268.524 101.616 268.524 100.23C268.524 98.7744 269.966 98.1724 271.226 98.1724C272.822 98.1724 274.096 98.6764 274.194 100.44L273.004 100.44C272.92 99.5164 272.108 99.2224 271.324 99.2224C270.61 99.2224 269.784 99.4184 269.784 100.146C269.784 101 271.044 101.14 272.15 101.406C273.34 101.672 274.516 102.064 274.516 103.464C274.516 105.186 272.906 105.746 271.436 105.746C269.812 105.746 268.44 105.088 268.37 103.296ZM277.484 96.1704L277.484 98.3404L278.926 98.3404L278.926 99.3904L277.484 99.3904L277.484 103.884C277.484 104.43 277.638 104.528 278.38 104.528L278.926 104.528L278.926 105.578L278.016 105.578C276.784 105.578 276.294 105.326 276.294 103.996L276.294 99.3904L275.062 99.3904L275.062 98.3404L276.294 98.3404L276.294 96.1704L277.484 96.1704ZM280.318 105.578L280.318 98.3404L281.508 98.3404L281.508 105.578L280.318 105.578ZM281.508 95.5824L281.508 97.0384L280.318 97.0384L280.318 95.5824L281.508 95.5824ZM285.003 96.1704L285.003 98.3404L286.445 98.3404L286.445 99.3904L285.003 99.3904L285.003 103.884C285.003 104.43 285.157 104.528 285.899 104.528L286.445 104.528L286.445 105.578L285.535 105.578C284.303 105.578 283.813 105.326 283.813 103.996L283.813 99.3904L282.581 99.3904L282.581 98.3404L283.813 98.3404L283.813 96.1704L285.003 96.1704ZM293.759 98.3404L293.759 105.578L292.639 105.578L292.639 104.43L292.611 104.43C292.107 105.326 291.295 105.746 290.259 105.746C288.355 105.746 287.767 104.654 287.767 103.1L287.767 98.3404L288.957 98.3404L288.957 103.24C288.957 104.122 289.517 104.696 290.427 104.696C291.869 104.696 292.569 103.73 292.569 102.428L292.569 98.3404L293.759 98.3404ZM301.693 100.664L300.461 100.664C300.279 99.7544 299.649 99.2224 298.669 99.2224C296.947 99.2224 296.415 100.58 296.415 102.05C296.415 103.38 297.017 104.696 298.529 104.696C299.677 104.696 300.363 104.024 300.517 102.932L301.735 102.932C301.469 104.696 300.363 105.746 298.543 105.746C296.331 105.746 295.155 104.206 295.155 102.05C295.155 99.8804 296.275 98.1724 298.571 98.1724C300.209 98.1724 301.525 98.9424 301.693 100.664ZM303.136 105.578L303.136 98.3404L304.326 98.3404L304.326 105.578L303.136 105.578ZM304.326 95.5824L304.326 97.0384L303.136 97.0384L303.136 95.5824L304.326 95.5824ZM305.778 101.966C305.778 99.8384 306.996 98.1724 309.292 98.1724C311.588 98.1724 312.806 99.8384 312.806 101.966C312.806 104.08 311.588 105.746 309.292 105.746C306.996 105.746 305.778 104.08 305.778 101.966ZM307.038 101.966C307.038 103.716 308.046 104.696 309.292 104.696C310.538 104.696 311.546 103.716 311.546 101.966C311.546 100.202 310.538 99.2224 309.292 99.2224C308.046 99.2224 307.038 100.202 307.038 101.966ZM314.209 105.578L314.209 98.3404L315.329 98.3404L315.329 99.4884L315.357 99.4884C315.861 98.5924 316.673 98.1724 317.709 98.1724C319.613 98.1724 320.201 99.2644 320.201 100.818L320.201 105.578L319.011 105.578L319.011 100.678C319.011 99.7964 318.451 99.2224 317.541 99.2224C316.099 99.2224 315.399 100.188 315.399 101.49L315.399 105.578L314.209 105.578ZM326.468 103.058L326.468 101.84C326.006 102.176 325.11 102.19 324.312 102.33C323.528 102.47 322.856 102.75 322.856 103.632C322.856 104.416 323.528 104.696 324.256 104.696C325.824 104.696 326.468 103.716 326.468 103.058ZM328.4 104.626L328.4 105.55C328.19 105.676 327.924 105.746 327.546 105.746C326.93 105.746 326.538 105.41 326.538 104.626C325.88 105.396 324.998 105.746 323.99 105.746C322.674 105.746 321.596 105.158 321.596 103.716C321.596 102.078 322.814 101.728 324.046 101.49C325.362 101.238 326.482 101.322 326.482 100.426C326.482 99.3904 325.628 99.2224 324.872 99.2224C323.864 99.2224 323.122 99.5304 323.066 100.594L321.876 100.594C321.946 98.8024 323.332 98.1724 324.942 98.1724C326.244 98.1724 327.658 98.4664 327.658 100.16L327.658 103.884C327.658 104.444 327.658 104.696 328.036 104.696C328.134 104.696 328.246 104.682 328.4 104.626ZM329.577 105.578L329.577 98.3404L330.767 98.3404L330.767 105.578L329.577 105.578ZM330.767 95.5824L330.767 97.0384L329.577 97.0384L329.577 95.5824L330.767 95.5824ZM332.149 103.296L333.339 103.296C333.381 104.36 334.305 104.696 335.285 104.696C336.027 104.696 337.035 104.528 337.035 103.618C337.035 102.694 335.859 102.54 334.669 102.274C333.493 102.008 332.303 101.616 332.303 100.23C332.303 98.7744 333.745 98.1724 335.005 98.1724C336.601 98.1724 337.875 98.6764 337.973 100.44L336.783 100.44C336.699 99.5164 335.887 99.2224 335.103 99.2224C334.389 99.2224 333.563 99.4184 333.563 100.146C333.563 101 334.823 101.14 335.929 101.406C337.119 101.672 338.295 102.064 338.295 103.464C338.295 105.186 336.685 105.746 335.215 105.746C333.591 105.746 332.219 105.088 332.149 103.296Z" fill="#5E718D"/>
<line x1="94.0444" y1="41.5662" x2="245.333" y2="41.5662" stroke="#D7DFE9" stroke-width="4"/>
<ellipse cx="280.77" cy="35.3976" rx="35.437" ry="35.3976" fill="#E4ECF5"/>
<path d="M276.89 42.7445L289.465 42.7445L289.465 46.1445L271.615 46.1445C272.065 35.7445 284.565 38.3195 284.565 34.0445C284.565 32.5945 283.34 31.5945 281.24 31.5945C279.29 31.5945 277.34 32.3945 277.065 34.8695L272.065 34.8695C272.29 29.8945 276.315 28.3445 281.065 28.3445C287.365 28.3445 289.565 31.3195 289.565 34.1195C289.565 37.5695 286.865 38.6695 282.09 40.1445L280.065 40.7695C278.99 41.1445 277.665 41.7195 276.89 42.7445Z" fill="#CCD9EB"/>
<ellipse cx="58.6074" cy="38.1205" rx="35.437" ry="35.3976" fill="#455468"/>
<path d="M57.8366 48.8674L57.8366 37.7924L52.5866 37.7924L52.5866 34.6924C56.4366 34.6174 57.8616 34.3174 58.8616 31.5174L62.3866 31.5174L62.3866 48.8674L57.8366 48.8674Z" fill="white"/>
</svg>
