<svg width="20" height="19" viewBox="0 0 20 19" fill="none" xmlns="http://www.w3.org/2000/svg">
<g clip-path="url(#clip0_209_21768)">
<path d="M17.4661 6.34983C17.4661 6.10905 17.3703 5.87812 17.1999 5.70786C17.0295 5.53759 16.7984 5.44194 16.5573 5.44194C16.3163 5.44194 16.0852 5.53759 15.9148 5.70786C15.7444 5.87812 15.6486 6.10905 15.6486 6.34983H17.4661ZM1.758 12.7124C1.6876 12.6161 1.5989 12.5346 1.49697 12.4726C1.39505 12.4106 1.28189 12.3692 1.16397 12.3509C1.04605 12.3325 0.925663 12.3376 0.809692 12.3657C0.693721 12.3939 0.584434 12.4445 0.488072 12.5149C0.39171 12.5852 0.310159 12.6739 0.248075 12.7757C0.185991 12.8775 0.144591 12.9906 0.126238 13.1084C0.107885 13.2262 0.112938 13.3465 0.14111 13.4623C0.169281 13.5782 0.220019 13.6874 0.290426 13.7837L1.758 12.7124ZM0.869278 12.3528C0.631766 12.3938 0.420258 12.5273 0.281283 12.724C0.142308 12.9208 0.0872495 13.1646 0.128221 13.4019C0.169192 13.6392 0.302836 13.8505 0.499753 13.9894C0.69667 14.1282 0.94073 14.1832 1.17824 14.1423L0.869278 12.3537V12.3528ZM3.61269 12.3855L3.90166 13.2471C4.0481 13.1981 4.17963 13.1127 4.28384 12.9988C4.38804 12.8849 4.46148 12.7464 4.49722 12.5963C4.53296 12.4462 4.52982 12.2895 4.48811 12.1409C4.44639 11.9924 4.36747 11.8569 4.25879 11.7473L3.61269 12.3855ZM2.74941 2.04006L3.5509 1.61062C3.47795 1.47472 3.37155 1.35963 3.24174 1.27619C3.11193 1.19275 2.96299 1.14373 2.80897 1.13374C2.65494 1.12374 2.5009 1.15311 2.36138 1.21908C2.22187 1.28504 2.10146 1.38542 2.01153 1.51076L2.75032 2.03915L2.74941 2.04006ZM7.92818 6.34983L7.71373 7.23231C7.84495 7.26408 7.98161 7.26624 8.11377 7.23863C8.24594 7.21102 8.37028 7.15432 8.47776 7.07268C8.58525 6.99103 8.67317 6.88648 8.73513 6.76662C8.7971 6.64677 8.83155 6.51462 8.83599 6.3798L7.92727 6.34983H7.92818ZM15.6941 3.76415L14.9353 4.26349C15.018 4.38902 15.1307 4.49206 15.2631 4.56337C15.3955 4.63468 15.5436 4.67202 15.6941 4.67205V3.76415ZM18.283 3.76415L19.0391 4.26712C19.1301 4.1304 19.1824 3.97157 19.1902 3.80753C19.1981 3.6435 19.1612 3.4804 19.0837 3.33562C19.0061 3.19084 18.8906 3.0698 18.7496 2.98538C18.6086 2.90097 18.4474 2.85634 18.283 2.85626V3.76415ZM15.8013 5.84686C15.7326 5.946 15.6844 6.05781 15.6595 6.17577C15.6345 6.29372 15.6333 6.41546 15.656 6.53388C15.6786 6.6523 15.7246 6.76503 15.7914 6.86549C15.8581 6.96595 15.9442 7.05212 16.0446 7.11898C16.145 7.18584 16.2577 7.23206 16.3762 7.25492C16.4947 7.27778 16.6165 7.27684 16.7347 7.25215C16.8528 7.22745 16.9648 7.1795 17.0641 7.1111C17.1635 7.04269 17.2482 6.95519 17.3134 6.85372L15.8013 5.84595V5.84686ZM15.6486 6.35074C15.6486 9.20153 14.8344 11.5557 13.395 13.1854C11.9683 14.8014 9.85375 15.7883 7.0649 15.7883V17.6041C10.3163 17.6041 12.9488 16.4356 14.7572 14.3865C16.5546 12.3528 17.4652 9.53473 17.4652 6.35074H15.6477H15.6486ZM7.0649 15.7883C5.51463 15.7883 4.49142 15.3888 3.72719 14.8486C2.9357 14.2885 2.36593 13.5413 1.75891 12.7115L0.291335 13.7828C0.88927 14.6008 1.61352 15.5786 2.67762 16.3312C3.76899 17.1029 5.16387 17.6041 7.0649 17.6041V15.7883ZM1.17915 14.1414C1.2067 14.1367 1.23399 14.1306 1.26093 14.1232L1.28365 14.1178C1.33224 14.1034 1.38042 14.0876 1.42814 14.0706L1.72801 13.9716L2.61765 13.6756L3.50092 13.3797C3.62178 13.3397 3.72174 13.307 3.79171 13.2825L3.87349 13.2553L3.89439 13.248L3.89985 13.2462H3.90166L3.6136 12.3846L3.32463 11.5239H3.32281L3.31736 11.5267L3.29555 11.5339L3.21467 11.5612L2.92388 11.6583L2.04152 11.9534C1.6321 12.0908 1.22257 12.2279 0.812938 12.3646C0.820208 12.3628 0.842017 12.3574 0.870187 12.3528L1.17915 14.1414ZM4.2597 11.7464C1.69439 9.15614 1.50356 5.33844 3.48911 2.56755L2.01244 1.51076C-0.477438 4.98618 -0.232085 9.79076 2.9675 13.0229L4.2597 11.7464ZM1.94883 2.46949C3.09927 4.60668 5.26565 6.63854 7.71282 7.23231L8.14173 5.46827C6.31976 5.02431 4.52413 3.41733 3.5509 1.60972L1.94974 2.46949H1.94883ZM8.8369 6.3798C8.87143 5.33299 9.24037 4.48048 9.81377 3.8958C10.3817 3.31565 11.1996 2.94705 12.2437 2.94705V1.13126C10.7452 1.13126 9.44755 1.67327 8.5143 2.62565C7.5856 3.57349 7.06854 4.87632 7.02038 6.32078L8.83781 6.3798H8.8369ZM12.2437 2.94795C12.9915 2.94795 13.525 3.08868 13.9266 3.30294C14.3265 3.5163 14.6509 3.83043 14.9362 4.26349L16.4538 3.26481C16.0357 2.6311 15.4996 2.08455 14.7817 1.70141C14.0666 1.3201 13.226 1.13126 12.2437 1.13126V2.94705V2.94795ZM15.695 4.67205H18.2839V2.85626H15.695V4.67205ZM17.5279 3.26027L15.8013 5.84686L17.3143 6.85372L19.04 4.26712L17.5279 3.25936V3.26027Z" fill="#FAFAFA"/>
</g>
<defs>
<clipPath id="clip0_209_21768">
<rect width="20" height="17.25" fill="white" transform="translate(0 0.875)"/>
</clipPath>
</defs>
</svg>
